# Blender 3.3.0
# www.blender.org
mtllib brazo_izq.mtl
o Material_#95.003
v -0.008856 0.228521 0.231894
v 0.034872 -0.012360 0.096759
v 0.166268 0.283979 0.143062
v 0.213849 0.041951 -0.010323
v 0.033328 -0.245300 -0.070319
v 0.178065 -0.198451 -0.171010
v 0.014082 -0.370268 -0.150606
v 0.149675 -0.330472 -0.241709
v 0.026083 -0.477384 -0.193577
v 0.039521 -0.692217 -0.260874
v 0.167005 -0.432018 -0.285643
v 0.204910 -0.625895 -0.375019
v 0.113999 -0.347963 -0.447494
v 0.102306 -0.256378 -0.379116
v 0.125295 -0.120498 -0.316951
v 0.147591 0.144812 -0.205678
v 0.093144 0.416937 -0.027463
v -0.108635 0.416606 -0.040638
v -0.088740 0.152581 -0.214548
v -0.066928 -0.113920 -0.315743
v -0.080741 -0.247348 -0.377249
v 0.137669 -0.526295 -0.572614
v -0.077292 -0.343181 -0.449903
v -0.097852 -0.540054 -0.568512
v -0.122892 -0.422952 -0.290740
v -0.129764 -0.322330 -0.227292
v -0.118044 -0.195356 -0.155408
v -0.151573 0.055649 -0.027286
v -0.161430 0.323418 0.132072
v -0.138543 -0.642303 -0.370909
v -0.171064 0.362361 -0.151664
v -0.258770 0.120787 0.251024
v -0.340715 -0.167944 -0.013878
v -0.251747 0.033853 -0.387553
v 0.213364 0.390947 -0.198895
v 0.233146 0.066712 -0.400177
v 0.319303 0.115952 0.166894
v 0.348504 -0.147310 -0.033324
v 0.002726 0.029120 0.336027
v 0.009610 -0.237480 0.122059
vn 0.8157 -0.1699 0.5529
vn -0.3002 -0.4855 0.8211
vn -0.0264 -0.5226 0.8521
vn 0.9443 -0.1481 0.2939
vn -0.0264 -0.5226 0.8522
vn -0.0265 -0.5227 0.8521
vn 0.0256 -0.5559 0.8308
vn 0.9395 -0.2823 0.1940
vn 0.9443 -0.1481 0.2940
vn 0.0256 -0.5559 0.8309
vn 0.0222 -0.5014 0.8649
vn 0.9491 -0.1522 0.2759
vn 0.0221 -0.5014 0.8649
vn 0.9337 0.0185 0.3577
vn 0.0011 -0.3217 0.9468
vn 0.2435 -0.4256 0.8715
vn 0.9944 0.0216 0.1034
vn 0.9337 0.0184 0.3577
vn 0.2435 -0.4256 0.8716
vn 0.5979 0.5249 -0.6058
vn 0.6008 0.4008 -0.6917
vn 0.9491 -0.1521 0.2759
vn 0.9336 0.0184 0.3577
vn 0.6007 0.4008 -0.6917
vn 0.5916 0.2417 -0.7692
vn 0.6133 0.3877 -0.6882
vn 0.6132 0.3877 -0.6882
vn 0.6133 0.3878 -0.6881
vn 0.7637 0.4519 -0.4609
vn -0.3574 0.4959 -0.7914
vn 0.7637 0.4520 -0.4609
vn 0.6133 0.3877 -0.6881
vn -0.5876 0.3254 -0.7409
vn -0.3574 0.4958 -0.7915
vn -0.5876 0.3252 -0.7409
vn 0.6132 0.3878 -0.6882
vn -0.5953 0.3018 -0.7447
vn -0.5875 0.3253 -0.7409
vn -0.5953 0.3019 -0.7446
vn 0.5916 0.2416 -0.7692
vn -0.5920 0.4563 -0.6643
vn -0.6072 0.4491 -0.6554
vn 0.3763 0.4737 -0.7963
vn -0.8138 0.2754 -0.5118
vn -0.6072 0.4491 -0.6555
vn 0.3763 0.4736 -0.7963
vn -0.9343 -0.1338 0.3305
vn -0.9341 -0.1691 0.3144
vn -0.5920 0.4562 -0.6644
vn -0.9341 -0.1690 0.3145
vn -0.5953 0.3019 -0.7447
vn -0.9409 -0.1778 0.2883
vn -0.9493 -0.2244 0.2201
vn -0.9493 -0.2244 0.2202
vn -0.5876 0.3253 -0.7409
vn -0.9961 -0.0739 0.0485
vn -0.3574 0.4960 -0.7914
vn -0.5875 0.3254 -0.7409
vn -0.9961 -0.0738 0.0485
vn -0.9343 -0.1337 0.3305
vn -0.0264 -0.5227 0.8521
vn -0.3002 -0.4856 0.8211
vn -0.9493 -0.2243 0.2201
vn 0.0011 -0.3215 0.9469
vn 0.5978 0.5249 -0.6059
vn 0.5979 0.5249 -0.6059
vn 0.9395 -0.2824 0.1940
vn 0.5979 0.5248 -0.6059
vn -0.8138 0.2754 -0.5117
vn -0.8199 -0.2669 0.5065
vn -0.5920 0.4563 -0.6644
vn 0.2434 -0.4256 0.8716
vn 0.0011 -0.3217 0.9469
vn -0.9341 -0.1692 0.3144
vn -0.9647 0.0110 0.2631
vn -0.7376 -0.3039 0.6030
vn -0.7509 0.4647 -0.4692
vn -0.4619 0.5645 -0.6841
vn -0.4618 0.5645 -0.6841
vn 0.5803 0.4843 -0.6548
vn 0.7824 0.3824 -0.4914
vn 0.5803 0.4842 -0.6548
vn 0.7824 0.3824 -0.4915
vn 0.5802 0.4843 -0.6548
vn 0.9651 -0.0606 0.2548
vn 0.7953 -0.3278 0.5099
vn 0.7953 -0.3279 0.5099
vn 0.2186 -0.5265 0.8216
vn -0.1308 -0.6141 0.7783
vn 0.2187 -0.5265 0.8216
vn -0.7376 -0.3040 0.6030
vn -0.1105 0.5483 0.8289
vn 0.7661 0.6295 0.1296
vn 0.0023 0.9676 -0.2523
vn -0.7276 0.6457 0.2315
vn -0.3226 0.2229 0.9199
vn -0.3287 -0.7131 -0.6192
vn 0.7615 -0.4286 -0.4863
vn 0.4755 -0.8549 0.2074
vn -0.3570 -0.8961 0.2637
vn -0.6683 -0.5869 -0.4571
vn -0.3011 0.6405 0.7064
vn -0.2298 0.3535 0.9067
vn 0.3897 0.2267 0.8926
vn 0.7053 0.6570 0.2663
vn 0.0312 0.9948 -0.0967
vn -0.7429 -0.5279 -0.4116
vn 0.3031 -0.6697 -0.6780
vn 0.3080 -0.9387 -0.1550
vn -0.0390 -0.9696 -0.2414
vn -0.3835 -0.8552 -0.3487
vt 0.638200 1.833400
vt 0.604500 1.829300
vt 0.638200 1.805600
vt 0.603300 1.801400
vt 0.570100 1.831100
vt 0.568700 1.798700
vt 0.552300 1.836000
vt 0.550700 1.799400
vt 0.538300 1.834400
vt 0.511400 1.833400
vt 0.537200 1.800500
vt 0.511200 1.801000
vt 0.537500 1.769000
vt 0.551200 1.769300
vt 0.569200 1.772400
vt 0.603800 1.774200
vt 0.643300 1.772600
vt 0.643700 1.743700
vt 0.605400 1.746400
vt 0.571000 1.745100
vt 0.553300 1.742400
vt 0.511200 1.769000
vt 0.538900 1.743800
vt 0.511200 1.742100
vt 0.539500 1.719300
vt 0.539500 1.865500
vt 0.553900 1.718000
vt 0.553900 1.864200
vt 0.571500 1.716800
vt 0.571500 1.862900
vt 0.605900 1.717700
vt 0.605900 1.863900
vt 0.643600 1.715300
vt 0.643600 1.861400
vt 0.511500 1.862300
vt 0.511500 1.716100
vt 0.496800 1.967600
vt 0.496800 1.988500
vt 0.496800 1.884000
vt 0.532700 1.884000
vt 0.532700 1.988500
vt 0.532700 1.967600
vt 0.496800 1.946700
vt 0.532700 1.946700
vt 0.496800 1.925800
vt 0.532700 1.925800
vt 0.496800 1.904900
vt 0.532700 1.904900
s 0
usemtl Material_#95.003
f 3/3/1 1/1/2 2/2/3
f 4/4/4 3/3/1 2/2/5
f 4/4/4 2/2/6 5/5/7
f 6/6/8 4/4/9 5/5/10
f 6/6/8 5/5/7 7/7/11
f 8/8/12 6/6/8 7/7/13
f 11/11/14 9/9/15 10/10/16
f 12/12/17 11/11/18 10/10/19
f 11/11/18 13/13/20 14/14/21
f 8/8/22 11/11/23 14/14/24
f 6/6/8 15/15/25 16/16/26
f 4/4/4 6/6/8 16/16/27
f 4/4/9 16/16/28 17/17/29
f 3/3/1 4/4/4 17/17/29
f 18/18/30 17/17/31 16/16/32
f 19/19/33 18/18/34 16/16/26
f 19/19/35 16/16/36 15/15/25
f 20/20/37 19/19/38 15/15/25
f 20/20/39 15/15/40 14/14/21
f 21/21/41 20/20/39 14/14/24
f 23/23/42 13/13/20 22/22/43
f 24/24/44 23/23/45 22/22/46
f 23/23/42 25/25/47 26/27/48
f 21/21/49 23/23/45 26/27/50
f 20/20/51 27/29/52 28/31/53
f 19/19/33 20/20/39 28/31/54
f 19/19/55 28/31/53 29/33/56
f 18/18/57 19/19/58 29/33/59
f 25/26/60 9/9/15 7/7/13
f 26/28/48 25/26/60 7/7/11
f 27/30/52 5/5/7 2/2/5
f 28/32/53 27/30/52 2/2/3
f 28/32/54 2/2/61 1/1/62
f 29/34/56 28/32/63 1/1/2
f 8/8/22 7/7/13 9/9/15
f 11/11/18 8/8/12 9/9/64
f 12/12/17 22/22/43 13/13/65
f 11/11/18 12/12/17 13/13/66
f 8/8/22 14/14/24 15/15/25
f 6/6/67 8/8/12 15/15/25
f 21/21/41 14/14/21 13/13/20
f 23/23/42 21/21/41 13/13/68
f 24/24/69 30/36/70 25/25/60
f 23/23/42 24/24/69 25/25/60
f 21/21/71 26/27/48 27/29/52
f 20/20/51 21/21/41 27/29/52
f 30/35/70 10/10/72 9/9/73
f 25/26/60 30/35/70 9/9/64
f 26/28/74 7/7/13 5/5/7
f 27/30/52 26/28/48 5/5/7
f 33/41/75 32/38/76 31/37/77
f 34/42/78 33/41/75 31/37/77
f 34/42/79 31/37/77 35/43/80
f 36/44/81 34/42/78 35/43/82
f 36/44/83 35/43/84 37/45/85
f 38/46/86 36/44/83 37/45/85
f 38/46/87 37/45/85 39/47/88
f 40/48/89 38/46/87 39/47/90
f 40/48/89 39/47/90 32/39/91
f 33/40/75 40/48/89 32/39/91
f 1/1/92 3/3/93 17/17/94 18/18/95 29/34/96
f 24/24/97 22/22/98 12/12/99 10/10/100 30/36/101
f 32/39/102 39/47/103 37/45/104 35/43/105 31/37/106
f 34/42/107 36/44/108 38/46/109 40/48/110 33/41/111
