# Blender 3.3.0
# www.blender.org
mtllib pie_der.mtl
o Material_#95.005
v -0.330867 0.053706 -0.168601
v -0.320305 0.052113 0.174995
v -0.104620 0.070086 -0.334020
v -0.127250 -0.471336 -0.311208
v -0.356978 -0.491406 -0.126640
v -0.364032 -0.489138 0.212067
v -0.107207 -0.449457 0.364665
v -0.071369 0.077088 0.321361
v 0.473634 -0.856203 -0.327363
v 0.425507 -0.686535 -0.242354
v 0.670611 -0.684609 -0.388900
v 0.315546 -0.586410 -0.155870
v 0.589975 -0.506823 -0.171911
v 0.300605 -0.578635 0.286212
v 0.579763 -0.501352 0.269781
v 0.089331 -0.575458 0.270071
v 0.403087 -0.675627 0.386484
v -0.147290 -0.657943 0.333684
v 0.402314 0.147540 0.004258
v 0.268314 0.122817 0.239377
v 0.394154 -0.283371 0.020492
v 0.256092 -0.345039 0.265310
v 0.343515 0.131979 -0.221514
v 0.307693 -0.342924 -0.191687
v 0.157115 0.100092 -0.339340
v 0.114260 -0.425391 -0.320715
v 0.166511 -0.660993 -0.309732
v 0.374909 -0.286413 -0.225603
v 0.437133 -0.534435 -0.191988
v 0.499493 -0.474774 0.052397
v 0.458096 -0.236526 0.024987
v 0.361521 -0.538162 0.338949
v 0.312314 -0.286053 0.312888
v -0.132521 -0.671020 0.429762
v -0.467980 -0.698982 0.254940
v -0.417528 -0.747510 0.237462
v -0.141102 -0.768102 -0.267385
v 0.140136 -0.714183 -0.258369
v 0.389326 -0.582828 -0.160903
v 0.446615 -0.522259 0.048098
v 0.317976 -0.594862 0.303270
v -0.125820 -0.726397 0.385713
v 0.105475 -0.582612 -0.140523
v -0.126865 -0.667671 -0.230306
v -0.134893 -0.861810 -0.290266
v -0.395760 -0.859434 -0.146751
v -0.343229 -0.670398 -0.122485
v -0.410756 -0.852937 0.228588
v -0.161948 -0.849948 0.393868
v -0.355513 -0.664800 0.202003
v 0.441112 -0.842028 0.487067
v 0.645216 -0.677670 0.549649
v 0.477815 -1.033170 -0.311479
v -0.125688 -1.031704 -0.276308
v -0.401045 -1.028895 -0.137098
v 0.445819 -1.019428 0.481217
v -0.152399 -1.020165 0.389121
v -0.415670 -1.022595 0.228276
v 0.657444 -1.023378 0.579205
v 0.684992 -1.030759 -0.424114
v 1.005780 -0.681090 -0.473477
v 1.241562 -0.532144 -0.097665
v 1.395589 -0.732538 -0.189745
v 1.390262 -0.734140 0.329964
v 1.239487 -0.480175 0.237709
v 0.991401 -0.681704 0.577359
v 0.934656 -0.395278 0.279698
v 0.938334 -0.395070 -0.192726
v -0.114445 -0.389328 0.425915
v -0.430674 -0.421081 0.245253
v -0.421081 -0.425373 -0.166116
v -0.449939 -0.708117 -0.142838
v -0.137600 -0.415239 -0.366265
v -0.148292 -0.716406 -0.322001
v 0.141873 -0.371247 -0.365410
v -0.402045 -0.754593 -0.105314
v 1.423788 -1.027005 -0.206836
v 1.049591 -1.025997 -0.464931
v 1.418158 -1.028707 0.342617
v 1.038576 -1.029284 0.602734
vn -0.8517 0.0217 -0.5236
vn -0.3186 -0.0299 -0.9474
vn -0.2494 0.9163 -0.3134
vn -0.8971 0.1068 0.4287
vn -0.8517 0.0217 -0.5235
vn -0.3360 0.9387 -0.0773
vn -0.4312 0.8546 0.2895
vn -0.0840 0.9721 -0.2188
vn -0.3178 0.3113 -0.8956
vn -0.2537 0.1597 -0.9540
vn -0.1958 0.5511 -0.8112
vn -0.2906 0.7984 -0.5273
vn -0.2214 0.8565 -0.4662
vn -0.2889 0.9170 0.2752
vn -0.1618 0.8351 0.5258
vn -0.2029 0.6239 0.7547
vn -0.0457 0.6930 0.7195
vn -0.2023 0.4649 0.8620
vn -0.0457 0.6931 0.7194
vn 0.6318 0.7748 0.0250
vn 0.9942 -0.0876 0.0624
vn 0.6480 -0.0145 0.7615
vn 0.6480 -0.0144 0.7615
vn 0.1415 0.6786 0.7208
vn 0.2842 -0.0798 -0.9554
vn 0.7953 -0.1175 -0.5948
vn 0.1116 0.7843 -0.6103
vn -0.2649 0.9425 -0.2038
vn 0.2842 -0.0799 -0.9554
vn 0.1115 0.7843 -0.6103
vn 0.7392 -0.4735 -0.4788
vn 0.3391 -0.4478 -0.8273
vn 0.3619 0.7885 -0.4973
vn 0.9192 -0.3927 0.0300
vn 0.7393 -0.4735 -0.4788
vn 0.3619 0.7884 -0.4974
vn 0.6442 -0.2751 0.7137
vn 0.9192 -0.3927 0.0301
vn 0.2775 0.9465 0.1650
vn -0.0787 -0.3049 0.9491
vn 0.6442 -0.2750 0.7137
vn -0.1892 0.9485 0.2542
vn -0.5601 -0.7311 0.3897
vn -0.8400 -0.2013 0.5039
vn 0.4218 -0.7512 -0.5078
vn -0.0331 -0.7347 -0.6776
vn 0.6504 -0.7513 -0.1122
vn 0.6627 -0.7449 0.0767
vn 0.5924 -0.7284 0.3442
vn 0.6627 -0.7449 0.0768
vn 0.1032 -0.6487 0.7540
vn -0.5601 -0.7310 0.3897
vn -0.0787 -0.3048 0.9492
vn 0.5924 -0.7284 0.3443
vn 0.6441 -0.2751 0.7137
vn -0.0183 0.6704 -0.7418
vn -0.1262 0.4515 -0.8833
vn -0.2536 0.1597 -0.9540
vn -0.1263 0.4515 -0.8833
vn -0.0184 0.6704 -0.7418
vn -0.2979 0.0757 -0.9516
vn -0.8035 0.3051 -0.5112
vn -0.2979 0.0758 -0.9516
vn -0.8398 0.1460 -0.5229
vn -0.7503 0.3123 0.5827
vn -0.9459 0.1684 0.2773
vn -0.3815 0.1119 0.9176
vn -0.2023 0.4648 0.8620
vn -0.2861 0.1996 0.9372
vn -0.2861 0.1997 0.9372
vn -0.2911 0.4977 0.8170
vn -0.2910 0.4977 0.8170
vn -0.2978 0.0758 -0.9516
vn -0.1179 -0.8296 -0.5458
vn -0.1759 -0.7512 -0.6362
vn -0.7291 -0.5157 -0.4500
vn -0.2045 -0.5745 0.7926
vn -0.1485 -0.8960 0.4184
vn -0.7295 -0.3551 0.5846
vn -0.9459 0.1683 0.2773
vn -0.1486 -0.8960 0.4184
vn -0.1657 -0.6940 0.7006
vn -0.2622 -0.5474 -0.7947
vn -0.3360 0.9387 -0.0772
vn -0.0841 0.9721 -0.2189
vn -0.4312 0.8545 0.2895
vn -0.1530 0.0743 0.9854
vn -0.2906 0.7985 -0.5273
vn -0.2889 0.9169 0.2752
vn 0.9070 0.3186 -0.2754
vn 0.2566 0.5101 -0.8210
vn 0.5818 0.7983 -0.1554
vn 0.8150 0.4569 0.3563
vn 0.8821 0.3433 -0.3226
vn 0.5399 0.8122 -0.2210
vn 0.8940 0.3495 0.2804
vn 0.6334 0.7055 -0.3180
vn 0.6014 0.7480 0.2808
vn 0.3079 0.3147 0.8979
vn 0.8685 0.3430 0.3579
vn 0.5718 0.7272 0.3798
vn 0.0435 0.9367 0.3474
vn 0.2520 0.3787 0.8906
vn 0.4857 0.7961 0.3610
vn 0.0333 0.9783 0.2043
vn 0.4749 0.8507 0.2255
vn 0.5189 0.7800 -0.3497
vn 0.0703 0.9618 -0.2647
vn 0.6429 0.7474 -0.1675
vn 0.3078 0.4623 -0.8316
vn 0.1004 0.9481 -0.3017
vn 0.1820 0.9205 0.3458
vn 0.6584 0.7201 -0.2190
vn 0.2180 0.4600 -0.8608
vn -0.2905 0.7985 -0.5273
vn -0.0435 0.9514 -0.3049
vn -0.2910 0.4978 0.8170
vn -0.1530 0.0744 0.9854
vn 0.7953 -0.1175 -0.5947
vn 0.6318 0.7747 0.0250
vn 0.1116 0.7842 -0.6104
vn -0.1918 0.9339 0.3018
vn 0.1152 0.9906 0.0742
vn -0.8400 -0.2012 0.5039
vn 0.1153 0.9906 0.0742
vn -0.4078 0.9054 0.1179
vn -0.7657 -0.4504 -0.4592
vn -0.4078 0.9054 0.1178
vn -0.4078 0.9055 0.1178
vn -0.4199 0.8611 -0.2866
vn -0.1857 -0.4814 -0.8566
vn -0.7657 -0.4503 -0.4592
vn -0.4198 0.8611 -0.2867
vn -0.1857 -0.4815 -0.8566
vn -0.4199 0.8611 -0.2867
vn -0.0065 0.4983 -0.8670
vn -0.1858 -0.4815 -0.8565
vn 0.3618 0.7885 -0.4974
vn -0.1919 0.9339 0.3018
vn -0.5019 -0.7662 -0.4012
vn -0.5019 -0.7662 -0.4013
vn -0.2648 0.9425 -0.2038
vn -0.1891 0.9485 0.2541
vn 0.2775 0.9464 0.1650
vn 0.6317 0.7748 0.0250
vn -0.1891 0.9485 0.2542
vn -0.1919 0.9338 0.3018
vn -0.1892 0.9485 0.2541
vn -0.3361 0.9387 -0.0773
vn 0.1153 0.9906 0.0743
vn -0.2495 0.9163 -0.3134
vn -0.0064 0.4982 -0.8670
vn -0.0066 0.4983 -0.8670
vn -0.9459 0.1684 0.2774
vn -0.2023 0.4649 0.8619
vn -0.3185 -0.0299 -0.9474
vn 0.2430 0.4940 -0.8348
vn 0.8930 0.3325 -0.3032
vn 0.6774 -0.5382 -0.5015
vn 0.6656 -0.5515 -0.5028
vn 0.0520 -0.7220 -0.6899
vn 0.0521 -0.7220 -0.6899
vn -0.2623 -0.5474 -0.7947
vn -0.7291 -0.5157 -0.4499
vn 0.8645 -0.1488 0.4802
vn 0.6732 -0.5399 -0.5052
vn 0.8779 0.3476 -0.3294
vn 0.8645 -0.1494 0.4799
vn 0.8781 0.3456 -0.3309
vn 0.8083 0.4697 0.3551
vn 0.8702 -0.1631 0.4649
vn 0.8323 0.4418 0.3347
vn 0.2756 0.4073 0.8707
vn 0.1435 -0.8319 0.5360
vn 0.8636 -0.1768 0.4721
vn 0.1434 -0.8319 0.5361
vn 0.2520 0.3786 0.8906
vn -0.1656 -0.6940 0.7006
vn 0.1436 -0.8319 0.5361
vn 0.8636 -0.1769 0.4721
vn 0.6655 -0.5516 -0.5028
vn -0.3745 0.8810 -0.2893
vn -0.4417 0.7895 0.4262
vn -0.0848 0.9276 0.3638
vn 0.1717 0.9707 0.1678
vn 0.1230 0.9681 -0.2184
vn -0.0503 0.9377 -0.3439
vn -0.2487 0.9287 -0.2751
vn -0.3661 0.9148 -0.1709
vn -0.0571 -0.9763 -0.2089
vn 0.3553 -0.9296 -0.0977
vn 0.3557 -0.9346 0.0004
vn 0.2658 -0.9596 0.0924
vn 0.3177 -0.8177 0.4800
vn -0.0444 -0.9020 0.4294
vn -0.0914 -0.9457 0.3118
vn 0.0258 -0.9989 0.0400
vt 0.518000 1.343600
vt 0.463500 1.343600
vt 0.577800 1.343600
vt 0.559200 1.343600
vt 0.560400 1.241900
vt 0.616200 1.329500
vt 0.578300 1.241900
vt 0.517900 1.241900
vt 0.616200 1.313700
vt 0.463500 1.241900
vt 0.616200 1.288000
vt 0.417500 1.242200
vt 0.012400 1.242200
vt 0.616200 1.240000
vt 0.413000 1.343900
vt 0.012400 1.343900
vt 0.857800 1.110900
vt 0.625300 1.454800
vt 0.852400 1.101000
vt 0.881700 1.115200
vt 0.896100 1.112500
vt 0.601200 1.423800
vt 0.839700 1.090800
vt 0.872700 1.090900
vt 0.888200 1.091300
vt 0.838800 1.038800
vt 0.873000 1.042300
vt 0.888400 1.043000
vt 0.814600 1.039700
vt 0.844900 1.028400
vt 0.786600 1.031800
vt 0.112700 1.343900
vt 0.059900 1.343900
vt 0.109500 1.242200
vt 0.616200 1.313700
vt 0.054500 1.242200
vt 0.616200 1.288000
vt 0.146500 1.343900
vt 0.140300 1.242200
vt 0.616200 1.329500
vt 0.171100 1.343900
vt 0.559200 1.343600
vt 0.166900 1.242200
vt 0.616200 1.364100
vt 0.560400 1.241900
vt 0.647500 1.364100
vt 0.608000 1.329500
vt 0.647500 1.329500
vt 0.647500 1.313700
vt 0.608000 1.313700
vt 0.647500 1.288000
vt 0.608000 1.288000
vt 0.647500 1.240000
vt 0.647500 1.288000
vt 0.655100 1.288000
vt 0.655100 1.329500
vt 0.655100 1.364100
vt 0.655100 1.329500
vt 0.655100 1.313700
vt 0.655100 1.288000
vt 0.655100 1.240000
vt 0.814600 1.088200
vt 0.786400 1.097200
vt 0.625300 1.475800
vt 0.785100 1.107000
vt 0.745500 1.084300
vt 0.625300 1.488800
vt 0.761000 1.081100
vt 0.625300 1.488800
vt 0.745500 1.042500
vt 0.625200 1.503900
vt 0.625300 1.475800
vt 0.785200 1.017600
vt 0.761100 1.045400
vt 0.848300 1.015800
vt 0.625300 1.454800
vt 0.881700 1.011800
vt 0.894700 1.013800
vt 0.601200 1.423800
vt 0.542900 1.104400
vt 0.656700 1.455000
vt 0.656700 1.475500
vt 0.627200 1.112200
vt 0.656700 1.488600
vt 0.665000 1.132100
vt 0.542900 1.205600
vt 0.656700 1.455000
vt 0.656700 1.475500
vt 0.627200 1.200300
vt 0.656700 1.488600
vt 0.656700 1.503600
vt 0.665000 1.180400
vt 0.656700 1.423800
vt 0.513700 1.221300
vt 0.656700 1.423800
vt 0.513700 1.088600
vt 0.938000 1.118700
vt 0.601200 1.411800
vt 0.964400 1.084500
vt 0.980600 1.094700
vt 0.601200 1.400100
vt 0.601200 1.391800
vt 0.981100 1.038000
vt 0.601200 1.400100
vt 0.964600 1.047900
vt 0.937500 1.015600
vt 0.601200 1.411800
vt 0.930100 1.043000
vt 0.929900 1.094600
vt 0.608000 1.240000
vt 0.608000 1.288000
vt 0.608000 1.313700
vt 0.647500 1.313700
vt 0.608000 1.329500
vt 0.647500 1.329500
vt 0.608000 1.364100
vt 0.655100 1.313700
vt 0.656700 1.399900
vt 0.656700 1.392000
vt 0.408700 1.116500
vt 0.656700 1.411600
vt 0.461500 1.082900
vt 0.656700 1.399900
vt 0.408700 1.189100
vt 0.656700 1.411600
vt 0.461600 1.224000
s 0
usemtl Material_#95.004
f 1/1/1 3/4/2 4/5/3
f 2/2/4 1/1/5 5/8/6
f 7/12/7 2/2/4 6/10/8
f 11/20/9 9/17/10 10/19/11
f 13/24/12 10/19/11 12/23/13
f 15/27/14 12/23/13 14/26/15
f 17/30/16 14/26/15 16/29/17
f 18/31/18 17/30/16 16/29/19
f 21/34/20 19/32/21 20/33/22
f 21/34/20 20/33/23 22/36/24
f 25/41/25 23/38/26 24/39/27
f 26/43/28 25/41/29 24/39/30
f 29/48/31 27/46/32 28/47/33
f 30/49/34 29/48/35 28/47/36
f 32/51/37 30/49/38 31/50/39
f 34/53/40 32/51/41 33/52/42
f 36/55/43 34/53/40 35/54/44
f 38/57/45 37/56/46 27/46/32
f 38/57/45 27/46/32 29/48/35
f 39/58/47 38/57/45 29/48/35
f 39/58/47 29/48/31 30/49/34
f 40/59/48 39/58/47 30/49/38
f 41/60/49 40/59/50 30/49/34
f 41/60/49 30/49/34 32/51/37
f 42/61/51 32/51/37 34/53/40
f 36/55/52 42/61/51 34/53/53
f 42/61/51 41/60/54 32/51/55
f 43/62/56 12/23/13 10/19/11
f 44/63/57 10/19/11 9/17/58
f 44/63/59 43/62/60 10/19/11
f 44/63/59 9/17/10 45/65/61
f 47/68/62 45/65/63 46/66/64
f 50/74/65 48/70/66 49/73/67
f 18/31/68 49/73/67 51/75/69
f 17/30/16 51/75/70 52/77/71
f 15/27/14 17/30/16 52/77/72
f 45/64/73 9/18/10 53/81/74
f 45/64/63 53/81/74 54/82/75
f 45/64/61 54/82/75 55/84/76
f 46/67/64 45/64/61 55/84/76
f 56/87/77 51/76/70 49/72/67
f 57/88/78 56/87/77 49/72/67
f 58/90/79 57/88/78 49/72/67
f 58/90/79 49/72/67 48/69/80
f 57/89/81 54/83/75 53/80/74
f 56/86/77 57/89/81 53/80/74
f 59/94/82 56/86/77 53/80/74
f 59/94/82 53/80/74 60/96/83
f 1/1/1 4/5/3 5/8/6
f 2/2/4 5/8/84 6/10/85
f 2/2/4 7/12/86 8/15/87
f 13/24/88 11/20/9 10/19/11
f 15/27/14 13/24/12 12/23/13
f 17/30/16 15/27/89 14/26/15
f 63/100/90 61/97/91 62/99/92
f 64/103/93 63/100/94 62/99/95
f 64/103/96 62/99/97 65/105/98
f 66/106/99 64/103/100 65/105/101
f 67/108/102 66/106/103 65/105/104
f 67/108/105 65/105/106 62/99/107
f 68/109/108 62/99/109 61/97/110
f 68/109/111 67/108/112 62/99/113
f 61/97/114 11/21/9 13/25/115
f 68/109/116 61/97/114 13/25/115
f 67/108/102 68/109/116 15/28/89
f 68/109/116 13/25/115 15/28/14
f 67/108/102 15/28/89 52/78/117
f 66/106/103 67/108/102 52/78/72
f 8/16/87 7/13/7 22/36/24
f 8/16/118 22/36/24 20/33/23
f 19/32/21 21/34/20 23/38/119
f 21/34/120 24/39/121 23/38/26
f 35/54/44 69/110/122 70/111/123
f 35/54/124 70/111/125 71/112/126
f 72/113/127 35/54/124 71/112/128
f 72/113/127 71/112/129 73/114/130
f 74/115/131 72/113/132 73/114/133
f 74/115/134 73/114/135 75/116/136
f 27/46/32 74/115/137 75/116/136
f 27/46/32 75/116/136 28/47/138
f 30/49/34 28/47/138 31/50/39
f 32/51/41 31/50/39 33/52/42
f 34/53/40 69/110/139 35/54/44
f 34/53/40 33/52/42 69/110/139
f 36/55/52 35/54/44 72/113/127
f 76/117/140 36/55/43 72/113/127
f 76/117/140 72/113/127 74/115/134
f 37/56/46 74/115/134 27/46/32
f 37/56/46 76/117/141 74/115/134
f 28/47/138 26/44/142 24/40/30
f 31/50/39 28/47/33 24/40/27
f 31/50/39 24/40/27 21/35/20
f 33/52/143 31/50/144 21/35/20
f 33/52/42 21/35/145 22/37/24
f 33/52/146 22/37/24 7/14/86
f 69/110/147 33/52/148 7/14/7
f 69/110/139 7/14/86 6/11/85
f 70/111/125 69/110/147 6/11/85
f 70/111/125 6/11/85 5/9/149
f 71/112/128 70/111/150 5/9/6
f 71/112/128 5/9/6 4/6/3
f 73/114/133 71/112/126 4/6/3
f 73/114/133 4/6/151 26/44/28
f 75/116/152 73/114/133 26/44/28
f 75/116/153 26/44/142 28/47/33
f 47/68/62 44/63/59 45/65/63
f 47/68/62 46/66/64 48/70/154
f 50/74/65 47/68/62 48/70/66
f 18/31/18 50/74/65 49/73/67
f 17/30/16 18/31/155 51/75/70
f 26/45/28 4/7/151 3/3/156
f 25/42/25 26/45/28 3/3/2
f 61/98/157 63/101/158 77/118/159
f 61/98/114 77/118/160 78/121/161
f 11/22/9 61/98/114 78/121/161
f 11/22/9 78/121/162 60/95/163
f 9/18/10 11/22/9 60/95/163
f 9/18/10 60/95/83 53/81/74
f 48/71/154 46/67/64 55/84/76
f 48/71/154 55/84/164 58/91/79
f 79/123/165 77/119/166 63/102/167
f 79/123/168 63/102/169 64/104/170
f 79/123/171 64/104/172 66/107/173
f 80/125/174 79/123/175 66/107/103
f 59/93/82 80/125/176 66/107/103
f 59/93/82 66/107/177 52/79/117
f 59/93/82 52/79/72 51/76/70
f 56/87/77 59/93/82 51/76/70
f 57/89/78 58/92/79 55/85/76
f 57/89/81 55/85/76 54/83/75
f 59/94/82 60/96/163 78/122/161
f 80/126/174 59/94/178 78/122/161
f 80/126/179 78/122/161 77/120/160
f 79/124/180 80/126/174 77/120/181
f 1/1/182 2/2/183 8/16/184 20/33/185 19/32/186 23/38/187 25/42/188 3/4/189
f 37/56/190 38/57/191 39/58/192 40/59/193 41/60/194 42/61/195 36/55/196 76/117/197
