# Blender 3.3.0
# www.blender.org
mtllib pie_izq.mtl
o Material_#95.006
v 0.386246 0.199314 0.030978
v 0.307252 0.183753 0.250500
v 0.379591 -0.231597 0.014045
v 0.274277 -0.291159 0.217554
v 0.110952 0.151865 0.350970
v 0.427276 -0.804456 0.367650
v 0.617864 -0.632854 0.446764
v 0.387041 -0.634779 0.278651
v 0.557201 -0.455058 0.223376
v 0.285351 -0.534646 0.182568
v 0.587004 -0.449569 -0.217438
v 0.310460 -0.526842 -0.259043
v 0.421599 -0.623827 -0.349645
v 0.098592 -0.523665 -0.262085
v -0.131281 -0.606123 -0.346854
v 0.077530 -0.530848 0.148287
v -0.161983 -0.615916 0.216669
v -0.175405 -0.810055 0.275639
v -0.367692 -0.618634 0.089760
v -0.422219 -0.807678 0.109090
v -0.350578 -0.613008 -0.234554
v -0.403198 -0.801153 -0.266013
v 0.468564 -0.790218 -0.446383
v -0.140448 -0.798147 -0.408127
v 0.677514 -0.625878 -0.490241
v 0.487385 -0.423000 -0.008184
v 0.375909 -0.486369 -0.306049
v 0.443677 -0.184752 0.015348
v -0.107894 -0.619218 -0.441193
v 0.324553 -0.234270 -0.284531
v -0.457792 -0.647191 -0.297444
v -0.090232 -0.337545 -0.435716
v 0.123008 -0.609237 0.322318
v 0.403169 -0.482679 0.229553
v 0.338147 -0.234648 0.257415
v 0.358372 -0.531072 0.194259
v 0.434335 -0.470484 -0.008689
v 0.329304 -0.543069 -0.274459
v -0.105199 -0.674595 -0.396727
v -0.409129 -0.695719 -0.275480
v -0.179518 -0.716347 0.252308
v 0.101382 -0.662427 0.268777
v -0.149227 0.121860 0.321981
v 0.274079 0.174591 -0.215305
v 0.264246 -0.293257 -0.242238
v -0.056787 0.128862 -0.327701
v -0.317951 0.103887 -0.204469
v -0.088568 -0.397675 -0.374062
v -0.381777 -0.439632 0.092608
v -0.359562 0.105479 0.136761
v -0.169690 -0.419571 0.297214
v 0.472732 -0.967618 -0.440139
v -0.131368 -0.968364 -0.402544
v -0.408109 -0.970803 -0.266181
v -0.164965 -0.979948 0.262562
v 0.432878 -0.981424 0.352200
v 0.692357 -0.971577 -0.518569
v 0.629009 -0.979002 0.483117
v -0.426609 -0.977130 0.099016
v 0.069950 -0.373644 0.328551
v -0.358152 -0.437356 -0.245339
v -0.421517 -0.369298 -0.284421
v -0.449181 -0.373600 0.126129
v -0.184981 -0.363474 0.351108
v 0.093413 -0.319483 0.375554
v -0.475814 -0.656353 0.100334
v -0.191623 -0.664650 0.306048
v -0.424729 -0.702828 0.067290
v 1.399625 -0.629524 -0.204025
v 1.428551 -0.976923 -0.214101
v 1.024795 -0.629928 -0.486500
v 1.074073 -0.977509 -0.507509
v 0.988407 -0.974225 0.556779
v 1.384422 -0.975231 0.333606
v 1.241117 -0.428401 -0.125787
v 0.941338 -0.343494 -0.195195
v 1.212826 -0.427527 0.208397
v 0.902237 -0.343297 0.275620
v 0.943913 -0.629299 0.561292
v 1.357885 -0.627913 0.314042
vn 0.6314 0.7748 0.0323
vn 0.9958 -0.0876 0.0279
vn 0.7382 -0.1175 0.6643
vn 0.0558 0.7843 0.6179
vn -0.2684 0.5510 0.7901
vn -0.3390 0.1596 0.9272
vn -0.3976 0.3112 0.8632
vn -0.2627 0.8565 0.4443
vn -0.2684 0.5510 0.7902
vn -0.3371 0.7985 0.4988
vn -0.1136 0.8351 -0.5382
vn -0.2628 0.9170 -0.3002
vn 0.0196 0.6932 -0.7204
vn -0.1338 0.6240 -0.7699
vn 0.0196 0.6931 -0.7206
vn -0.1235 0.4649 -0.8767
vn -0.0854 0.6703 0.7371
vn -0.0854 0.6704 0.7371
vn -0.2056 0.4515 0.8683
vn -0.3389 0.1596 0.9272
vn -0.2056 0.4514 0.8683
vn -0.3827 0.0757 0.9208
vn -0.9222 0.1792 0.3428
vn -0.7515 0.2969 0.5891
vn -0.8924 0.1418 -0.4284
vn -0.9222 0.1791 0.3428
vn -0.8025 0.3154 -0.5065
vn -0.2001 0.1997 -0.9592
vn -0.2970 0.1119 -0.9483
vn -0.2159 0.4978 -0.8400
vn 0.2913 0.9464 -0.1393
vn 0.9181 -0.3927 0.0532
vn 0.7061 -0.2751 -0.6525
vn -0.1654 0.9485 -0.2702
vn 0.0075 -0.3048 -0.9524
vn -0.1638 0.9338 -0.3180
vn 0.0074 -0.3048 -0.9524
vn -0.7910 -0.2012 -0.5778
vn 0.3154 0.7885 0.5280
vn 0.2628 -0.4478 0.8546
vn 0.6929 -0.4736 0.5437
vn 0.6376 -0.7513 0.1705
vn 0.6669 -0.7449 -0.0165
vn 0.6376 -0.7513 0.1706
vn 0.6669 -0.7449 -0.0166
vn 0.6211 -0.7284 -0.2892
vn 0.1710 -0.6487 -0.7416
vn 0.7061 -0.2750 -0.6525
vn -0.5225 -0.7310 -0.4389
vn -0.0942 -0.7347 0.6718
vn 0.3741 -0.7512 0.5438
vn 0.6929 -0.4735 0.5437
vn 0.2628 -0.4479 0.8546
vn 0.6315 0.7747 0.0323
vn 0.7143 -0.0145 -0.6997
vn 0.9958 -0.0875 0.0279
vn -0.0632 0.0743 -0.9952
vn 0.7143 -0.0144 -0.6997
vn 0.2062 0.6786 -0.7050
vn -0.8546 0.1068 -0.5081
vn -0.4032 0.8545 -0.3274
vn -0.8956 0.0216 0.4443
vn -0.3416 0.9387 0.0465
vn -0.4030 -0.0300 0.9147
vn -0.8956 0.0217 0.4443
vn -0.2767 0.9163 0.2896
vn -0.1319 -0.5744 -0.8079
vn -0.2970 0.1120 -0.9483
vn -0.1319 -0.5744 -0.8078
vn -0.1100 -0.8960 -0.4302
vn -0.1101 -0.8960 -0.4302
vn -0.6737 -0.3550 -0.6482
vn -0.8924 0.1417 -0.4284
vn -0.6736 -0.3550 -0.6482
vn -0.1668 -0.8296 0.5328
vn -0.2327 -0.7512 0.6177
vn -0.1669 -0.8296 0.5328
vn -0.1320 -0.5744 -0.8079
vn -0.1016 -0.6940 -0.7128
vn -0.3330 -0.5475 0.7677
vn -0.7668 -0.5158 0.3821
vn -0.2329 -0.7512 0.6176
vn -0.3828 0.0757 0.9207
vn -0.3390 0.1596 0.9271
vn -0.3331 -0.5475 0.7677
vn -0.3331 -0.5474 0.7677
vn -0.2823 0.9425 0.1789
vn 0.1965 -0.0798 0.9772
vn -0.4030 -0.0299 0.9147
vn -0.2822 0.9425 0.1789
vn -0.2768 0.9163 0.2895
vn 0.1966 -0.0798 0.9772
vn 0.0559 0.7843 0.6179
vn 0.1966 -0.0799 0.9772
vn -0.3371 0.7984 0.4989
vn -0.2057 0.4514 0.8683
vn -0.7516 0.2969 0.5891
vn -0.9222 0.1792 0.3427
vn -0.7516 0.2968 0.5891
vn -0.8025 0.3153 -0.5065
vn 0.2913 0.9464 -0.1392
vn 0.6319 0.7740 0.0415
vn 0.2913 0.9465 -0.1392
vn -0.1654 0.9485 -0.2703
vn 0.2061 0.6786 -0.7050
vn -0.1653 0.9485 -0.2702
vn -0.4033 0.8545 -0.3274
vn -0.4032 0.8546 -0.3273
vn -0.1638 0.9339 -0.3179
vn -0.1035 0.9721 0.2104
vn 0.1215 0.9906 -0.0635
vn -0.1036 0.9721 0.2104
vn -0.3416 0.9387 0.0466
vn 0.1216 0.9905 -0.0635
vn -0.3955 0.9054 -0.1542
vn -0.3417 0.9387 0.0466
vn -0.3954 0.9055 -0.1542
vn -0.3955 0.9054 -0.1543
vn -0.4441 0.8611 0.2474
vn -0.2768 0.9163 0.2896
vn -0.4440 0.8611 0.2475
vn -0.4441 0.8611 0.2475
vn -0.0850 0.4982 0.8629
vn -0.0850 0.4981 0.8629
vn 0.3155 0.7885 0.5280
vn 0.3154 0.7885 0.5281
vn -0.1637 0.9339 -0.3180
vn -0.7909 -0.2012 -0.5779
vn -0.7909 -0.2013 -0.5779
vn -0.8042 -0.4503 0.3880
vn -0.8041 -0.4504 0.3880
vn -0.8041 -0.4503 0.3880
vn -0.2624 -0.4815 0.8362
vn -0.0849 0.4982 0.8629
vn -0.2625 -0.4815 0.8362
vn -0.5226 -0.7310 -0.4389
vn -0.5362 -0.7662 0.3541
vn -0.0943 -0.7347 0.6718
vn 0.2062 0.6785 -0.7050
vn -0.4032 0.8546 -0.3274
vn -0.8546 0.1068 -0.5082
vn 0.3316 0.3787 -0.8641
vn 0.8439 0.4569 -0.2811
vn 0.9028 -0.1769 -0.3920
vn 0.1914 -0.8319 -0.5209
vn 0.1915 -0.8319 -0.5209
vn -0.1016 -0.6940 -0.7127
vn -0.2158 0.4978 -0.8400
vn -0.1320 -0.5744 -0.8078
vn -0.7668 -0.5157 0.3822
vn -0.7668 -0.5157 0.3821
vn -0.2327 -0.7512 0.6176
vn -0.0106 -0.7220 0.6918
vn -0.0107 -0.7220 0.6918
vn 0.6174 -0.5515 0.5610
vn 0.6173 -0.5515 0.5610
vn 0.9028 -0.1768 -0.3920
vn 0.5177 0.8122 0.2690
vn 0.5164 0.7961 -0.3156
vn 0.0748 0.9367 -0.3421
vn 0.0748 0.9367 -0.3420
vn -0.0709 0.9514 0.2998
vn 0.1391 0.4600 0.8770
vn -0.0709 0.9514 0.2997
vn 0.1392 0.4600 0.8770
vn 0.8492 0.3434 0.4012
vn 0.5164 0.7961 -0.3155
vn 0.0747 0.9367 -0.3421
vn 0.8492 0.3433 0.4012
vn -0.2217 0.9267 -0.3035
vn -0.4947 0.8118 -0.3103
vn -0.7391 0.6672 -0.0924
vn -0.2369 0.9230 0.3032
vn -0.0919 0.9947 -0.0471
vn 0.2598 0.9627 -0.0754
vn 0.4004 0.9127 0.0815
vn -0.1358 0.9907 0.0078
vn -0.4950 0.8586 -0.1336
vn -0.6298 0.7570 -0.1740
vn -0.3801 0.9147 0.1371
vn -0.2726 0.9287 0.2515
vn -0.0813 0.9377 0.3379
vn 0.1028 0.9681 0.2286
vn 0.1862 0.9708 -0.1515
vn -0.0515 0.9276 -0.3699
vn 0.4292 -0.8853 -0.1789
vn 0.2731 -0.9596 -0.0681
vn 0.3543 -0.9346 0.0317
vn 0.3450 -0.9296 0.1294
vn 0.1923 -0.9699 0.1494
vn 0.0292 -0.9989 -0.0376
vn -0.0628 -0.9457 -0.3189
vn -0.0053 -0.9020 -0.4316
vt 0.305000 1.343900
vt 0.271100 1.343900
vt 0.608000 1.313700
vt 0.308100 1.242200
vt 0.277300 1.242200
vt 0.608000 1.329500
vt 0.246500 1.343900
vt 0.174900 1.343900
vt 0.857800 1.110900
vt 0.625300 1.454800
vt 0.881700 1.115200
vt 0.896100 1.112500
vt 0.601200 1.423800
vt 0.852400 1.101000
vt 0.872700 1.090900
vt 0.888200 1.091300
vt 0.839700 1.090800
vt 0.873000 1.042300
vt 0.888400 1.043000
vt 0.838800 1.038800
vt 0.844900 1.028400
vt 0.814600 1.039700
vt 0.786600 1.031800
vt 0.814600 1.088200
vt 0.786400 1.097200
vt 0.785100 1.107000
vt 0.625300 1.475800
vt 0.761000 1.081100
vt 0.625300 1.488800
vt 0.745500 1.084300
vt 0.625200 1.503900
vt 0.761100 1.045400
vt 0.745500 1.042500
vt 0.625300 1.488800
vt 0.848300 1.015800
vt 0.625300 1.454800
vt 0.625300 1.475800
vt 0.785200 1.017600
vt 0.881700 1.011800
vt 0.601200 1.423800
vt 0.894700 1.013800
vt 0.647500 1.313700
vt 0.647500 1.288000
vt 0.616200 1.313700
vt 0.647500 1.240000
vt 0.616200 1.288000
vt 0.647500 1.288000
vt 0.616200 1.240000
vt 0.647500 1.364100
vt 0.647500 1.329500
vt 0.616200 1.329500
vt 0.655100 1.329500
vt 0.655100 1.313700
vt 0.655100 1.288000
vt 0.655100 1.240000
vt 0.655100 1.288000
vt 0.655100 1.329500
vt 0.655100 1.364100
vt 0.242600 1.343900
vt 0.559200 1.343600
vt 0.357700 1.343900
vt 0.608000 1.288000
vt 0.363100 1.242200
vt 0.413000 1.343900
vt 0.463500 1.343600
vt 0.608000 1.240000
vt 0.417500 1.242200
vt 0.608000 1.313700
vt 0.517900 1.241900
vt 0.518000 1.343600
vt 0.246700 1.242200
vt 0.608000 1.329500
vt 0.560400 1.241900
vt 0.542900 1.205600
vt 0.656700 1.455000
vt 0.656700 1.475500
vt 0.627200 1.200300
vt 0.656700 1.488600
vt 0.665000 1.180400
vt 0.627200 1.112200
vt 0.656700 1.475500
vt 0.542900 1.104400
vt 0.656700 1.455000
vt 0.656700 1.423800
vt 0.513700 1.221300
vt 0.513700 1.088600
vt 0.656700 1.423800
vt 0.656700 1.503600
vt 0.665000 1.132100
vt 0.656700 1.488600
vt 0.170300 1.242200
vt 0.250700 1.242200
vt 0.608000 1.364100
vt 0.608000 1.288000
vt 0.463500 1.241900
vt 0.616200 1.288000
vt 0.616200 1.313700
vt 0.616200 1.329500
vt 0.616200 1.364100
vt 0.647500 1.313700
vt 0.647500 1.329500
vt 0.655100 1.313700
vt 0.601200 1.400100
vt 0.981100 1.038000
vt 0.601200 1.391800
vt 0.656700 1.399900
vt 0.408700 1.189100
vt 0.656700 1.392000
vt 0.601200 1.411800
vt 0.937500 1.015600
vt 0.656700 1.411600
vt 0.461600 1.224000
vt 0.461500 1.082900
vt 0.656700 1.411600
vt 0.408700 1.116500
vt 0.656700 1.399900
vt 0.964600 1.047900
vt 0.930100 1.043000
vt 0.964400 1.084500
vt 0.929900 1.094600
vt 0.938000 1.118700
vt 0.601200 1.411800
vt 0.980600 1.094700
vt 0.601200 1.400100
s 0
usemtl Material_#95.012
f 3/4/1 1/1/2 2/2/3
f 3/4/1 2/2/3 4/5/4
f 8/14/5 6/9/6 7/11/7
f 10/17/8 8/14/9 9/15/10
f 12/20/11 10/17/8 11/18/12
f 14/22/13 12/20/11 13/21/14
f 14/22/15 13/21/14 15/23/16
f 8/14/9 10/17/8 16/24/17
f 8/14/9 16/24/18 17/25/19
f 6/9/20 8/14/9 17/25/21
f 18/26/22 6/9/20 17/25/21
f 20/30/23 18/26/22 19/28/24
f 22/33/25 20/30/26 21/32/27
f 23/35/28 15/23/16 13/21/14
f 23/35/28 24/38/29 15/23/16
f 25/39/30 13/21/14 11/18/12
f 25/39/30 23/35/28 13/21/14
f 28/44/31 26/42/32 27/43/33
f 30/46/34 27/43/33 29/45/35
f 32/48/36 29/45/37 31/47/38
f 35/51/39 33/49/40 34/50/41
f 26/42/32 34/50/41 36/52/42
f 37/53/43 26/42/32 36/52/44
f 26/42/32 37/53/45 38/54/46
f 27/43/33 26/42/32 38/54/46
f 29/45/35 27/43/33 39/55/47
f 27/43/48 38/54/46 39/55/47
f 29/45/35 39/55/47 40/56/49
f 31/47/38 29/45/35 40/56/49
f 33/49/40 41/57/50 42/58/51
f 34/50/52 42/58/51 36/52/42
f 34/50/52 33/49/53 42/58/51
f 3/4/54 44/61/55 1/1/56
f 46/64/57 44/61/58 45/63/59
f 47/65/60 46/64/57 48/67/61
f 50/70/62 47/65/60 49/69/63
f 43/60/64 50/70/65 51/73/66
f 24/37/29 23/36/28 52/75/67
f 24/37/68 52/75/69 53/76/70
f 24/37/29 53/76/71 54/78/72
f 22/34/73 24/37/29 54/78/74
f 56/82/75 55/80/76 53/77/71
f 56/82/77 53/77/71 52/74/78
f 56/82/75 52/74/67 57/85/79
f 58/86/80 56/82/75 57/85/79
f 18/27/22 20/29/23 59/90/81
f 18/27/22 55/81/82 56/83/75
f 6/10/6 18/27/83 56/83/75
f 6/10/84 56/83/75 58/87/85
f 7/13/7 6/10/6 58/87/86
f 60/91/87 5/8/88 43/59/89
f 60/91/90 43/59/89 51/71/91
f 5/7/92 4/5/93 2/2/3
f 5/7/94 60/92/87 4/5/4
f 8/14/9 7/11/7 9/15/95
f 10/17/8 9/15/10 11/18/12
f 12/20/11 11/18/12 13/21/14
f 18/26/22 17/25/96 19/28/97
f 20/30/98 19/28/99 21/32/27
f 24/38/29 21/32/27 15/23/16
f 24/38/29 22/33/25 21/32/100
f 3/3/1 4/6/4 28/44/101
f 3/3/102 28/44/103 30/46/104
f 45/62/105 3/3/1 30/46/106
f 48/66/107 45/62/59 30/46/106
f 48/66/108 30/46/34 32/48/109
f 61/94/110 48/66/61 32/48/36
f 61/94/110 32/48/109 62/96/111
f 49/68/63 61/94/112 62/96/111
f 49/68/113 62/96/114 63/97/115
f 51/72/66 49/68/116 63/97/117
f 51/72/66 63/97/118 64/98/119
f 60/93/87 51/72/120 64/98/121
f 60/93/87 64/98/122 65/99/123
f 28/44/101 4/6/93 35/51/39
f 60/93/87 65/99/124 35/51/39
f 4/6/4 60/93/87 35/51/125
f 28/44/101 35/51/126 26/42/32
f 30/46/34 28/44/103 27/43/48
f 32/48/109 30/46/34 29/45/35
f 62/96/114 32/48/127 31/47/38
f 63/97/118 62/96/111 31/47/128
f 63/97/115 31/47/129 66/100/130
f 64/98/119 63/97/117 66/100/131
f 64/98/121 66/100/132 67/101/133
f 65/99/134 64/98/122 67/101/135
f 65/99/123 67/101/135 33/49/40
f 35/51/39 65/99/124 33/49/40
f 26/42/32 35/51/39 34/50/52
f 66/100/130 31/47/38 40/56/49
f 66/100/130 40/56/136 68/102/137
f 67/101/135 66/100/130 68/102/137
f 33/49/40 67/101/135 41/57/138
f 67/101/135 68/102/137 41/57/50
f 44/61/58 3/4/1 45/63/139
f 46/64/57 45/63/59 48/67/140
f 47/65/141 48/67/140 61/95/112
f 47/65/60 61/95/112 49/69/63
f 50/70/65 49/69/113 51/73/120
f 71/109/142 69/103/143 70/106/144
f 71/109/142 70/106/144 72/111/145
f 71/109/142 72/111/146 57/84/147
f 25/40/148 71/109/142 57/84/79
f 23/36/28 25/40/30 57/84/147
f 23/36/28 57/84/79 52/75/149
f 22/34/25 54/78/74 59/88/150
f 20/31/23 22/34/25 59/88/151
f 59/89/150 54/79/74 53/77/71
f 55/80/152 59/89/150 53/77/71
f 73/113/153 58/86/86 57/85/79
f 73/113/154 57/85/79 72/112/145
f 74/115/155 73/113/154 72/112/145
f 74/115/156 72/112/145 70/107/157
f 77/119/158 75/117/159 76/118/160
f 77/119/158 76/118/161 78/120/162
f 79/121/163 77/119/158 78/120/164
f 77/119/158 79/121/165 80/123/166
f 77/119/158 80/123/166 69/104/143
f 75/117/167 77/119/158 69/104/143
f 75/117/159 69/104/143 71/110/142
f 76/118/160 75/117/167 71/110/142
f 76/118/160 71/110/142 25/41/30
f 78/120/162 76/118/168 11/19/12
f 76/118/168 25/41/30 11/19/12
f 79/121/163 78/120/162 9/16/95
f 78/120/162 11/19/12 9/16/10
f 79/121/165 9/16/95 7/12/7
f 18/27/22 59/90/151 55/81/152
f 7/13/7 58/87/80 73/114/153
f 79/122/165 7/13/7 73/114/153
f 79/122/165 73/114/153 74/116/156
f 80/124/169 79/122/163 74/116/156
f 80/124/166 74/116/156 70/108/144
f 69/105/143 80/124/166 70/108/144
f 15/23/170 21/32/171 19/28/172 17/25/173 16/24/174 10/17/175 12/20/176 14/22/177
f 47/65/178 50/70/179 43/60/180 5/8/181 2/2/182 1/1/183 44/61/184 46/64/185
f 38/54/186 37/53/187 36/52/188 42/58/189 41/57/190 68/102/191 40/56/192 39/55/193
