# Blender 3.3.0
# www.blender.org
mtllib pierna_izq.mtl
o Material_#95.004
v 0.440266 -0.127320 -0.028290
v 0.387716 -0.175740 0.211657
v 0.386191 -0.360798 -0.036806
v 0.323199 -0.367458 0.197991
v 0.354438 -0.508704 -0.043652
v 0.283873 -0.509965 0.186487
v 0.333423 -0.689046 -0.051092
v 0.254429 -0.704608 0.168430
v 0.087781 -0.510207 0.285741
v 0.058129 -0.736495 0.268900
v 0.120719 -0.348775 0.306776
v 0.157448 -0.211660 0.336425
v 0.186613 -0.136698 0.366370
v -0.202050 -0.766501 0.239911
v -0.182069 -0.503386 0.259620
v -0.386770 -0.495303 0.082467
v -0.171983 -0.297591 0.285529
v -0.379679 -0.252655 0.101924
v -0.328895 -0.243510 -0.258611
v -0.338515 -0.494817 -0.267976
v -0.067018 -0.283119 -0.392018
v -0.083398 -0.497544 -0.398734
v 0.261128 -0.333996 -0.282214
v 0.291746 -0.085147 -0.274149
v -0.055356 -0.057787 -0.385948
v -0.340498 -0.061575 -0.256840
v -0.391751 -0.126934 0.108268
v -0.171785 -0.190816 0.316925
v -0.169141 -0.128212 0.350993
v 0.239932 -0.504754 -0.290798
v 0.221256 -0.713770 -0.297375
v -0.109610 -0.759498 -0.409771
v -0.370774 -0.784474 -0.286539
v -0.412385 -0.782880 0.054691
vn 0.9690 -0.2147 -0.1224
vn 0.9385 -0.2658 -0.2203
vn 0.7674 -0.3813 0.5154
vn 0.7674 -0.3812 0.5155
vn 0.7496 -0.2771 0.6011
vn 0.9829 -0.1678 -0.0755
vn 0.7461 -0.2015 0.6347
vn 0.2418 -0.1354 0.9608
vn 0.7382 -0.1175 0.6643
vn 0.1965 -0.0798 0.9773
vn 0.2087 -0.3536 0.9118
vn 0.1403 -0.2082 0.9680
vn 0.7674 -0.3813 0.5155
vn 0.2697 -0.7733 0.5738
vn -0.9059 0.0217 0.4228
vn -0.4030 -0.0299 0.9147
vn -0.2960 -0.0741 0.9523
vn -0.9060 0.0217 0.4228
vn -0.4639 -0.1495 0.8732
vn -0.9421 -0.0669 0.3285
vn -0.8103 0.0829 -0.5801
vn -0.8124 -0.0026 -0.5832
vn -0.0127 0.0338 -0.9993
vn -0.8124 -0.0026 -0.5831
vn -0.0671 0.0170 -0.9976
vn 0.6358 -0.0631 -0.7693
vn 0.9385 -0.2657 -0.2204
vn 0.5942 -0.0845 -0.7999
vn 0.5942 -0.0846 -0.7998
vn -0.0561 -0.0036 -0.9984
vn 0.5942 -0.0845 -0.7998
vn -0.0672 0.0170 -0.9976
vn -0.7855 -0.0908 -0.6121
vn -0.7855 -0.0909 -0.6121
vn -0.9322 -0.2309 0.2789
vn -0.9421 -0.0669 0.3286
vn -0.9321 -0.2309 0.2789
vn -0.4165 -0.2801 0.8649
vn -0.4640 -0.1495 0.8731
vn -0.3766 -0.6883 0.6200
vn 0.7185 -0.0686 -0.6921
vn 0.7185 -0.0687 -0.6922
vn 0.9690 -0.2147 -0.1225
vn 0.7185 -0.0686 -0.6922
vn 0.7143 -0.0144 -0.6997
vn 0.7143 -0.0145 -0.6997
vn -0.0632 0.0743 -0.9952
vn -0.8546 0.1068 -0.5081
vn -0.8103 0.0828 -0.5801
vn -0.8956 0.0216 0.4443
vn -0.8956 0.0217 0.4443
vn -0.4030 -0.0300 0.9147
vn -0.3766 -0.6882 0.6201
vn 0.2696 -0.7734 0.5738
vn 0.9958 -0.0876 0.0279
vn 0.9958 -0.0876 0.0278
vn 0.7461 -0.2015 0.6346
vn -0.8104 0.0828 -0.5801
vn -0.0128 0.0338 -0.9993
vn 0.1965 -0.0799 0.9772
vn 0.2418 -0.1353 0.9608
vn -0.2959 -0.0741 0.9523
vn 0.1966 -0.0798 0.9772
vn 0.3472 0.9048 0.2464
vn 0.3185 0.9384 -0.1339
vn 0.1521 0.9655 -0.2113
vn -0.2204 0.9635 -0.1522
vn -0.4549 0.8711 0.1849
vn -0.3511 0.9113 0.2150
vn 0.1607 0.7628 0.6263
vn 0.3895 0.9144 -0.1104
vn -0.0651 -0.9669 0.2467
vn -0.0643 -0.9408 0.3328
vn -0.2596 -0.9566 -0.1324
vn 0.0161 -0.9314 -0.3637
vn 0.3655 -0.8531 -0.3724
vn 0.4316 -0.8608 -0.2698
vn 0.4975 -0.8673 -0.0142
vn 0.3477 -0.9188 0.1868
vt 0.301600 1.434700
vt 0.263900 1.426800
vt 0.302600 1.411900
vt 0.265800 1.411900
vt 0.303600 1.384100
vt 0.268000 1.384100
vt 0.305000 1.343900
vt 0.271100 1.343900
vt 0.243300 1.384100
vt 0.177400 1.384100
vt 0.174900 1.343900
vt 0.246500 1.343900
vt 0.183200 1.411900
vt 0.239300 1.411900
vt 0.233500 1.420900
vt 0.226800 1.433000
vt 0.242600 1.343900
vt 0.559200 1.343600
vt 0.559900 1.383800
vt 0.239600 1.384100
vt 0.519200 1.383800
vt 0.235600 1.411900
vt 0.238700 1.411900
vt 0.560900 1.411600
vt 0.520000 1.411600
vt 0.465100 1.411600
vt 0.463500 1.383800
vt 0.406100 1.411900
vt 0.410300 1.384100
vt 0.356300 1.411900
vt 0.355000 1.441600
vt 0.403400 1.446000
vt 0.465100 1.448000
vt 0.528300 1.437400
vt 0.559800 1.427200
vt 0.232000 1.424200
vt 0.561100 1.437200
vt 0.225200 1.434400
vt 0.356500 1.384100
vt 0.357700 1.343900
vt 0.413000 1.343900
vt 0.463500 1.343600
vt 0.518000 1.343600
s 0
usemtl Material_#95.010
f 3/3/1 1/1/2 2/2/3
f 3/3/1 2/2/4 4/4/5
f 5/5/6 3/3/1 4/4/5
f 5/5/6 4/4/5 6/6/7
f 9/9/8 8/8/9 6/6/7
f 9/9/8 10/12/10 8/8/9
f 12/15/11 11/14/12 4/4/5
f 12/15/11 4/4/5 2/2/13
f 13/16/14 12/15/11 2/2/13
f 16/21/15 14/18/16 15/19/17
f 16/21/18 17/24/19 18/25/20
f 20/27/21 18/25/20 19/26/22
f 22/29/23 19/26/24 21/28/25
f 23/30/26 1/1/27 3/3/1
f 23/30/26 21/28/25 24/31/28
f 23/30/26 24/31/29 1/1/2
f 25/32/30 24/31/31 21/28/32
f 26/33/33 25/32/30 21/28/25
f 26/33/34 21/28/32 19/26/24
f 27/34/35 19/26/24 18/25/36
f 27/34/37 26/33/33 19/26/24
f 28/35/38 18/25/20 17/24/39
f 28/35/38 27/34/37 18/25/36
f 27/34/35 28/35/38 29/37/40
f 30/39/41 3/3/1 5/5/6
f 30/39/42 23/30/26 3/3/43
f 30/39/44 31/40/45 22/29/23
f 31/40/46 32/41/47 22/29/23
f 32/41/47 33/42/48 20/27/49
f 33/42/48 34/43/50 16/21/18
f 34/43/51 14/18/52 16/21/18
f 11/13/12 17/22/39 15/20/17
f 9/10/8 11/13/12 15/20/17
f 28/36/38 11/14/12 12/15/11
f 28/36/38 17/23/39 11/14/12
f 29/38/53 12/15/11 13/16/54
f 29/38/40 28/36/38 12/15/11
f 7/7/55 5/5/6 6/6/7
f 7/7/56 6/6/57 8/8/9
f 11/14/12 6/6/7 4/4/5
f 11/14/12 9/9/8 6/6/57
f 16/21/18 15/19/17 17/24/39
f 20/27/58 16/21/18 18/25/20
f 22/29/23 20/27/49 19/26/22
f 23/30/26 22/29/59 21/28/25
f 30/39/44 22/29/23 23/30/26
f 31/40/46 5/5/6 7/7/55
f 31/40/45 30/39/44 5/5/6
f 32/41/47 20/27/49 22/29/23
f 33/42/48 16/21/15 20/27/49
f 10/11/60 9/10/61 15/20/62
f 10/11/63 15/20/17 14/17/16
f 2/2/64 1/1/65 24/31/66 25/32/67 26/33/68 27/34/69 29/38/70 13/16/71
f 14/18/72 34/43/73 33/42/74 32/41/75 31/40/76 7/7/77 8/8/78 10/12/79
